<svg width="19" height="22" viewBox="0 0 19 22" fill="none" xmlns="http://www.w3.org/2000/svg">
<path d="M5.42857 6.35938V4.64062C5.42857 4.35703 5.65759 4.125 5.9375 4.125H7.63393C7.91384 4.125 8.14286 4.35703 8.14286 4.64062V6.35938C8.14286 6.64297 7.91384 6.875 7.63393 6.875H5.9375C5.65759 6.875 5.42857 6.64297 5.42857 6.35938ZM11.3661 6.875H13.0625C13.3424 6.875 13.5714 6.64297 13.5714 6.35938V4.64062C13.5714 4.35703 13.3424 4.125 13.0625 4.125H11.3661C11.0862 4.125 10.8571 4.35703 10.8571 4.64062V6.35938C10.8571 6.64297 11.0862 6.875 11.3661 6.875ZM5.9375 11H7.63393C7.91384 11 8.14286 10.768 8.14286 10.4844V8.76562C8.14286 8.48203 7.91384 8.25 7.63393 8.25H5.9375C5.65759 8.25 5.42857 8.48203 5.42857 8.76562V10.4844C5.42857 10.768 5.65759 11 5.9375 11ZM11.3661 11H13.0625C13.3424 11 13.5714 10.768 13.5714 10.4844V8.76562C13.5714 8.48203 13.3424 8.25 13.0625 8.25H11.3661C11.0862 8.25 10.8571 8.48203 10.8571 8.76562V10.4844C10.8571 10.768 11.0862 11 11.3661 11ZM8.14286 14.6094V12.8906C8.14286 12.607 7.91384 12.375 7.63393 12.375H5.9375C5.65759 12.375 5.42857 12.607 5.42857 12.8906V14.6094C5.42857 14.893 5.65759 15.125 5.9375 15.125H7.63393C7.91384 15.125 8.14286 14.893 8.14286 14.6094ZM11.3661 15.125H13.0625C13.3424 15.125 13.5714 14.893 13.5714 14.6094V12.8906C13.5714 12.607 13.3424 12.375 13.0625 12.375H11.3661C11.0862 12.375 10.8571 12.607 10.8571 12.8906V14.6094C10.8571 14.893 11.0862 15.125 11.3661 15.125ZM19 20.4531V22H0V20.4531C0 20.1695 0.229018 19.9375 0.508929 19.9375H1.33594V1.03125C1.33594 0.459766 1.78973 0 2.35379 0H16.6462C17.2103 0 17.6641 0.459766 17.6641 1.03125V19.9375H18.4911C18.771 19.9375 19 20.1695 19 20.4531ZM3.37165 19.8945H8.14286V17.0156C8.14286 16.732 8.37187 16.5 8.65179 16.5H10.3482C10.6281 16.5 10.8571 16.732 10.8571 17.0156V19.8945H15.6283V2.10547L3.39286 2.0625L3.37165 19.8945Z" fill="#4FA1C1"/>
</svg>
